<svg xmlns="http://www.w3.org/2000/svg" viewBox="0 0 630 880" role="img" aria-label="ポケモンカード裏面">
  <defs>
    <radialGradient id="glow" cx="50%" cy="48%" r="56%">
      <stop offset="0" stop-color="#ffffff"/>
      <stop offset="0.26" stop-color="#f2f6ff"/>
      <stop offset="0.45" stop-color="#70d0ea"/>
      <stop offset="0.67" stop-color="#264e98"/>
      <stop offset="1" stop-color="#0b2761"/>
    </radialGradient>
    <radialGradient id="burst" cx="50%" cy="50%" r="50%">
      <stop offset="0" stop-color="#fff"/>
      <stop offset="0.42" stop-color="#f5f5f5"/>
      <stop offset="0.45" stop-color="#ef482d"/>
      <stop offset="0.74" stop-color="#d9261f"/>
      <stop offset="1" stop-color="#6e1515"/>
    </radialGradient>
    <filter id="grain">
      <feTurbulence type="fractalNoise" baseFrequency="0.9" numOctaves="2" stitchTiles="stitch"/>
      <feColorMatrix type="saturate" values="0.35"/>
      <feBlend mode="multiply" in2="SourceGraphic"/>
    </filter>
  </defs>
  <rect width="630" height="880" rx="34" fill="#d7bb1c"/>
  <rect x="18" y="18" width="594" height="844" rx="24" fill="url(#glow)" filter="url(#grain)"/>
  <g opacity="0.72">
    <path d="M316 438 158 185l122 285L77 303l181 214L42 508l227 64-116 223 172-183 104 220-42-246 213 102-181-167 203-75-225 10 124-211-171 174z" fill="#fff" opacity="0.42"/>
    <path d="M316 438 210 150l72 318L58 268l199 251-239-40 249 92-136 215 191-174 88 236-22-261 211 123-178-190 223-64-242-1 145-208-197 170z" fill="#ff4f8a" opacity="0.28"/>
    <path d="M316 438 460 154l-82 315 211-194-186 244 232-45-241 96 119 218-176-174-93 229 31-255L72 707l171-187-220-63 238-3-137-201 190 164z" fill="#5bef83" opacity="0.25"/>
  </g>
  <g transform="translate(315 430)">
    <circle r="138" fill="url(#burst)" stroke="#f5f5f5" stroke-width="8"/>
    <path d="M-134 0h268a138 138 0 0 1-268 0z" fill="#f8f8f8"/>
    <path d="M-138 0h276" stroke="#222" stroke-width="16"/>
    <circle r="38" fill="#252525"/>
    <circle r="27" fill="#eee" stroke="#666" stroke-width="7"/>
    <circle r="15" fill="#fff"/>
  </g>
  <g font-family="Arial Black, Impact, sans-serif" font-weight="900" text-anchor="middle" letter-spacing="2">
    <text x="318" y="165" font-size="94" fill="#1d3f99" stroke="#1d3f99" stroke-width="18">Pokemon</text>
    <text x="318" y="165" font-size="94" fill="#ffd924" stroke="#ffd924" stroke-width="4">Pokemon</text>
    <g transform="rotate(180 315 720)">
      <text x="315" y="760" font-size="82" fill="#1d3f99" stroke="#1d3f99" stroke-width="17">Pokemon</text>
      <text x="315" y="760" font-size="82" fill="#ffd924" stroke="#ffd924" stroke-width="4">Pokemon</text>
    </g>
  </g>
  <g opacity="0.88">
    <circle cx="88" cy="72" r="26" fill="#e8fff0" stroke="#c5dce5" stroke-width="4"/>
    <circle cx="546" cy="72" r="26" fill="#fff6de" stroke="#e0d3bf" stroke-width="4"/>
    <circle cx="88" cy="412" r="27" fill="#ffd9d9" stroke="#e9b8c5" stroke-width="4"/>
    <circle cx="544" cy="412" r="27" fill="#f1d8ff" stroke="#cbb8e9" stroke-width="4"/>
    <circle cx="92" cy="810" r="30" fill="#d8ffff" stroke="#b8d8e9" stroke-width="4"/>
    <circle cx="546" cy="810" r="30" fill="#ffe4c2" stroke="#dfc2a2" stroke-width="4"/>
    <circle cx="315" cy="620" r="31" fill="#fff" stroke="#e6e6e6" stroke-width="4"/>
  </g>
</svg>
